<svg id="Layer_1" data-name="Layer 1" xmlns="http://www.w3.org/2000/svg" viewBox="0 0 168.97 41.8"><defs><style>.cls-1{fill:#fff;}</style></defs><path class="cls-1" d="M36.34,58.94a24.92,24.92,0,0,1-.94,2.89c-.38,1-.79,1.91-1.22,2.83s-.84,1.8-1.21,2.62a2.15,2.15,0,0,1-.81,1.21,2.36,2.36,0,0,1-1.43.45,2.39,2.39,0,0,1-2.34-2.34,5.12,5.12,0,0,1,.47-1.66c.31-.78.68-1.64,1.09-2.59s.8-1.88,1.17-2.83a14.58,14.58,0,0,0,.75-2.39,35.06,35.06,0,0,0-5.68,3.68Q23.48,63,20.87,65.07a2.42,2.42,0,0,1-1.53.52,2.29,2.29,0,0,1-1.64-.68,2.2,2.2,0,0,1-.7-1.63,4.26,4.26,0,0,1,.39-1.06c.26-.57.59-1.26,1-2.06s.84-1.66,1.32-2.57.93-1.77,1.37-2.57.82-1.5,1.17-2.1.57-1,.68-1.12A2.37,2.37,0,0,1,24.78,51a2.35,2.35,0,0,1,1.7.68,2.2,2.2,0,0,1,.7,1.63,2.11,2.11,0,0,1-.13.77,3.11,3.11,0,0,1-.32.63l1.41-.88c.53-.32,1.08-.63,1.64-.91a14.37,14.37,0,0,1,1.73-.72,5.46,5.46,0,0,1,1.69-.29,3.29,3.29,0,0,1,1.58.36,3.21,3.21,0,0,1,1.09.94,4.21,4.21,0,0,1,.63,1.37,6.22,6.22,0,0,1,.21,1.63A11.08,11.08,0,0,1,36.34,58.94Z" transform="translate(-17 -27.98)"/><path class="cls-1" d="M53.24,55.16a9.51,9.51,0,0,1-2.88,2.57,15.54,15.54,0,0,1-3.76,1.6,21.12,21.12,0,0,1-3.77.73,12.78,12.78,0,0,0,.67,1.81,7.48,7.48,0,0,0,1,1.61,4.76,4.76,0,0,0,1.38,1.15,3.79,3.79,0,0,0,1.84.44l.42,0a2.71,2.71,0,0,0,.43-.1l.26,0,.22,0a2,2,0,0,1,1.63.74,2.56,2.56,0,0,1,.62,1.66A2.39,2.39,0,0,1,51,68.55a2.2,2.2,0,0,1-.83.77,3.85,3.85,0,0,1-1.16.37,9.08,9.08,0,0,1-1.28.1,7.78,7.78,0,0,1-4-1,9.86,9.86,0,0,1-3-2.68,12.27,12.27,0,0,1-1.89-3.71,13.3,13.3,0,0,1-.65-4.1,9.3,9.3,0,0,1,1-4.16,11.25,11.25,0,0,1,2.55-3.4,12,12,0,0,1,3.64-2.28,11.26,11.26,0,0,1,4.23-.83,7.18,7.18,0,0,1,1.81.23,4.67,4.67,0,0,1,1.53.71A3.91,3.91,0,0,1,54,49.76a3.63,3.63,0,0,1,.41,1.78A5.94,5.94,0,0,1,53.24,55.16Zm-3.61-2.81a6.4,6.4,0,0,0-1.63.23,9.26,9.26,0,0,0-1.62.6,8.12,8.12,0,0,0-1.45.88,6.73,6.73,0,0,0-1.16,1.09q.69-.13,1.53-.36A12,12,0,0,0,47,54.22a10.13,10.13,0,0,0,1.53-.81,5.42,5.42,0,0,0,1.2-1.06Zm9-22a2.24,2.24,0,0,1-.44,1.3,2.57,2.57,0,0,1-1,.88A6.06,6.06,0,0,0,55.74,34a16.07,16.07,0,0,0-1.21,2c-.38.73-.75,1.48-1.11,2.26s-.73,1.52-1.12,2.21a13.65,13.65,0,0,1-1.24,1.86,4.31,4.31,0,0,1-1.43,1.2,4.22,4.22,0,0,1-.7.25,3.55,3.55,0,0,1-.76.08,2.55,2.55,0,0,1-1.06-.22,1.59,1.59,0,0,1-.8-.76,3.42,3.42,0,0,1-.24-.7,2.74,2.74,0,0,1-.08-.7,2.22,2.22,0,0,1,1-1.89c.31-.26.52-.42.64-.5a1.83,1.83,0,0,0,.27-.21A.64.64,0,0,0,48,38.7a.92.92,0,0,0,.14-.23l.17-.35.31-.54c.41-.72.84-1.53,1.27-2.46s.91-1.82,1.42-2.71A17.45,17.45,0,0,1,53,30a6.25,6.25,0,0,1,2-1.66,2,2,0,0,1,.62-.26,2.87,2.87,0,0,1,.58-.07,2.36,2.36,0,0,1,2.21,1.47A1.81,1.81,0,0,1,58.64,30.33Z" transform="translate(-17 -27.98)"/><path class="cls-1" d="M70.29,63.38a6.39,6.39,0,0,1-1.76,2.21A7.46,7.46,0,0,1,66,66.91a10.94,10.94,0,0,1-3.12.44,13.37,13.37,0,0,1-2.44-.25,10,10,0,0,1-2.57-.81,6.42,6.42,0,0,1-2-1.48A3.28,3.28,0,0,1,55,62.53a4.6,4.6,0,0,1,.64-2A17.64,17.64,0,0,1,57.24,58c.67-.87,1.42-1.75,2.23-2.63s1.61-1.67,2.39-2.38A19,19,0,0,1,64,51.28a3.07,3.07,0,0,1,1.46-.65,2.57,2.57,0,0,1,1.55.53,6,6,0,0,1,1.33,1.4,12,12,0,0,1,1.09,1.94,15.57,15.57,0,0,1,.81,2.14,19,19,0,0,1,.51,2,8.85,8.85,0,0,1,.18,1.57A7.11,7.11,0,0,1,70.29,63.38Zm-4.4-5a15.35,15.35,0,0,0-.74-1.77l-1.37,1.24c-.48.43-1,.88-1.42,1.33s-.9.93-1.31,1.42a16.31,16.31,0,0,0-1.11,1.48,6.85,6.85,0,0,0,1.42.35,9.15,9.15,0,0,0,1.38.1A8.84,8.84,0,0,0,64,62.45a3.37,3.37,0,0,0,1.1-.32,2.16,2.16,0,0,0,.8-.7,2.05,2.05,0,0,0,.31-1.18A5.59,5.59,0,0,0,65.89,58.38Z" transform="translate(-17 -27.98)"/><path class="cls-1" d="M87.67,55.18a2.34,2.34,0,0,1-1.67.68,2.51,2.51,0,0,1-1.2-.32,3.26,3.26,0,0,0-1.19-.2H82.36a8.58,8.58,0,0,0-1.6.13c-.41.09-.81.18-1.19.28s-.79.19-1.23.28a10.35,10.35,0,0,1-1.77.13h-.1a9.3,9.3,0,0,1-1.27-.1A3.5,3.5,0,0,1,74,55.68a2.22,2.22,0,0,1-1.21-2.06,2.19,2.19,0,0,1,.74-1.68,2.4,2.4,0,0,1,1.67-.66h.29a.89.89,0,0,1,.3.06,1,1,0,0,1,.26,0,.62.62,0,0,0,.26,0h.23c.82-.09,1.46-.18,1.91-.26l1.21-.25c.34-.07.7-.14,1.06-.19a9.58,9.58,0,0,1,1.48-.08h.52c.54,0,1.13,0,1.79.08a7.62,7.62,0,0,1,1.83.37,3.81,3.81,0,0,1,1.45.86,2.07,2.07,0,0,1,.59,1.55A2.23,2.23,0,0,1,87.67,55.18Z" transform="translate(-17 -27.98)"/><path class="cls-1" d="M109,58.94a23.15,23.15,0,0,1-.94,2.89c-.38,1-.78,1.91-1.22,2.83s-.83,1.8-1.2,2.62a2.12,2.12,0,0,1-.82,1.21,2.34,2.34,0,0,1-1.43.45,2.39,2.39,0,0,1-2.34-2.34,5.4,5.4,0,0,1,.47-1.66c.32-.78.68-1.64,1.09-2.59s.8-1.88,1.17-2.83a14.58,14.58,0,0,0,.75-2.39,35.41,35.41,0,0,0-5.67,3.68Q96.14,63,93.55,65.07a2.46,2.46,0,0,1-1.53.52,2.31,2.31,0,0,1-1.65-.68,2.23,2.23,0,0,1-.7-1.63,4.51,4.51,0,0,1,.4-1.06c.26-.57.59-1.26,1-2.06s.84-1.66,1.32-2.57.93-1.77,1.36-2.57.83-1.5,1.17-2.1.58-1,.69-1.12A2.34,2.34,0,0,1,97.45,51a2.39,2.39,0,0,1,1.71.68,2.23,2.23,0,0,1,.7,1.63,2.34,2.34,0,0,1-.13.77,3.78,3.78,0,0,1-.33.63l1.42-.88c.53-.32,1.08-.63,1.64-.91a14.23,14.23,0,0,1,1.72-.72,5.52,5.52,0,0,1,1.7-.29,3.25,3.25,0,0,1,1.57.36,3.12,3.12,0,0,1,1.09.94,4.22,4.22,0,0,1,.64,1.37,6.22,6.22,0,0,1,.21,1.63A11.11,11.11,0,0,1,109,58.94Z" transform="translate(-17 -27.98)"/><path class="cls-1" d="M126,63.38a6.28,6.28,0,0,1-1.76,2.21,7.37,7.37,0,0,1-2.57,1.32,10.84,10.84,0,0,1-3.12.44,13.37,13.37,0,0,1-2.44-.25,10,10,0,0,1-2.57-.81,6.38,6.38,0,0,1-2-1.48,3.24,3.24,0,0,1-.83-2.28,4.56,4.56,0,0,1,.63-2A17.76,17.76,0,0,1,112.94,58c.67-.87,1.41-1.75,2.22-2.63s1.61-1.67,2.39-2.38a20,20,0,0,1,2.15-1.7,3.06,3.06,0,0,1,1.47-.65,2.54,2.54,0,0,1,1.54.53,6,6,0,0,1,1.33,1.4,11.25,11.25,0,0,1,1.09,1.94,17.06,17.06,0,0,1,.82,2.14c.21.72.38,1.4.5,2a8.85,8.85,0,0,1,.18,1.57A7.11,7.11,0,0,1,126,63.38Zm-4.39-5a17.4,17.4,0,0,0-.75-1.77l-1.37,1.24c-.47.43-1,.88-1.41,1.33s-.91.93-1.32,1.42a14.5,14.5,0,0,0-1.1,1.48,6.61,6.61,0,0,0,1.41.35,9.34,9.34,0,0,0,1.38.1,8.75,8.75,0,0,0,1.27-.08,3.5,3.5,0,0,0,1.11-.32,2.13,2.13,0,0,0,.79-.7,2.05,2.05,0,0,0,.31-1.18A5.83,5.83,0,0,0,121.59,58.38Z" transform="translate(-17 -27.98)"/><path class="cls-1" d="M135.76,55.75c-.28.86-.57,1.71-.88,2.57s-.61,1.71-.88,2.57a8.78,8.78,0,0,0-.41,2.65,2.28,2.28,0,0,1-.73,1.69,2.78,2.78,0,0,1-.76.52,2.19,2.19,0,0,1-.91.2,2.11,2.11,0,0,1-1.84-.88,3.33,3.33,0,0,1-.64-2,8.85,8.85,0,0,1,.38-2.55c.25-.83.53-1.66.86-2.49s.63-1.64.93-2.46a10.74,10.74,0,0,0,.57-2.48,2.46,2.46,0,0,1,.73-1.63,2.14,2.14,0,0,1,1.61-.68,2.28,2.28,0,0,1,1.69.68,2.31,2.31,0,0,1,.68,1.69A8.68,8.68,0,0,1,135.76,55.75Zm5.77-7.63a3.23,3.23,0,0,1-.76,1,3.76,3.76,0,0,1-1.05.63,2.92,2.92,0,0,1-1.15.23,3.47,3.47,0,0,1-1.4-.32,5.12,5.12,0,0,1-1.3-.85,4.86,4.86,0,0,1-1-1.19,2.67,2.67,0,0,1-.39-1.38,2.23,2.23,0,0,1,.7-1.63,2.31,2.31,0,0,1,1.65-.68,2.37,2.37,0,0,1,1.85.85,1,1,0,0,1,.41-.12h.4a2.2,2.2,0,0,1,1.63.7,2.24,2.24,0,0,1,.68,1.64A2.42,2.42,0,0,1,141.53,48.12Z" transform="translate(-17 -27.98)"/><path class="cls-1" d="M156,54.51a2.27,2.27,0,0,1-1.7.7,3,3,0,0,1-1.07-.24l-1.35-.55a16.38,16.38,0,0,0-1.54-.56,6,6,0,0,0-1.7-.24,2.29,2.29,0,0,0-1.25.29,1.8,1.8,0,0,0-.63,1.11,14.63,14.63,0,0,0,1.82.88,10.83,10.83,0,0,1,1.8.91,4.9,4.9,0,0,1,1.4,1.28,3.34,3.34,0,0,1,.57,2,5.43,5.43,0,0,1-1.07,3.25,11,11,0,0,1-2.67,2.6,13.67,13.67,0,0,1-3.46,1.73,11.07,11.07,0,0,1-3.44.61,8.22,8.22,0,0,1-1.54-.16,6.46,6.46,0,0,1-1.61-.52,3.91,3.91,0,0,1-1.27-1,2.16,2.16,0,0,1-.52-1.48,2.39,2.39,0,0,1,2.41-2.41,1.71,1.71,0,0,1,.65.12,4.92,4.92,0,0,1,.58.26l.61.26a2.12,2.12,0,0,0,.69.11,6.19,6.19,0,0,0,1.55-.23,7.84,7.84,0,0,0,1.66-.65,9.21,9.21,0,0,0,1.48-1,4,4,0,0,0,1-1.21c-.58-.28-1.2-.56-1.85-.83a9.84,9.84,0,0,1-1.79-1,4.6,4.6,0,0,1-1.35-1.36,3.64,3.64,0,0,1-.54-2,6.2,6.2,0,0,1,2-4.62,6.46,6.46,0,0,1,2.15-1.32,7.35,7.35,0,0,1,2.6-.47A10.29,10.29,0,0,1,150,49a12.53,12.53,0,0,1,1.68.31c.58.14,1.18.31,1.79.52a7.34,7.34,0,0,1,1.62.76,4.55,4.55,0,0,1,1.17,1,1.94,1.94,0,0,1,.46,1.28A2.28,2.28,0,0,1,156,54.51Z" transform="translate(-17 -27.98)"/><path class="cls-1" d="M173.51,55.16a9.51,9.51,0,0,1-2.88,2.57,15.54,15.54,0,0,1-3.76,1.6,21.12,21.12,0,0,1-3.77.73,11.66,11.66,0,0,0,.67,1.81,7.48,7.48,0,0,0,1,1.61,4.76,4.76,0,0,0,1.38,1.15,3.76,3.76,0,0,0,1.84.44l.42,0a2.58,2.58,0,0,0,.42-.1,1.09,1.09,0,0,0,.26,0l.23,0a2,2,0,0,1,1.63.74,2.56,2.56,0,0,1,.62,1.66,2.39,2.39,0,0,1-.31,1.27,2.27,2.27,0,0,1-.83.77,3.85,3.85,0,0,1-1.16.37,9.08,9.08,0,0,1-1.28.1,7.75,7.75,0,0,1-4-1,10,10,0,0,1-3-2.68,12.48,12.48,0,0,1-1.88-3.71,13.3,13.3,0,0,1-.65-4.1,9.3,9.3,0,0,1,1-4.16,11.25,11.25,0,0,1,2.55-3.4,12,12,0,0,1,3.64-2.28,11.26,11.26,0,0,1,4.23-.83,7.18,7.18,0,0,1,1.81.23,4.67,4.67,0,0,1,1.53.71,3.91,3.91,0,0,1,1.07,1.22,3.63,3.63,0,0,1,.41,1.78A5.94,5.94,0,0,1,173.51,55.16Zm-3.61-2.81a6.4,6.4,0,0,0-1.63.23,9.67,9.67,0,0,0-1.63.6,8,8,0,0,0-1.44.88A6.73,6.73,0,0,0,164,55.15q.69-.13,1.53-.36a12.51,12.51,0,0,0,1.66-.57,10.13,10.13,0,0,0,1.53-.81,5.42,5.42,0,0,0,1.2-1.06Z" transform="translate(-17 -27.98)"/><path class="cls-1" d="M185.64,46.06a5.07,5.07,0,0,1-1,1.86,4.74,4.74,0,0,1-1.7,1.23,6.17,6.17,0,0,1-2.41.44,7.93,7.93,0,0,1-1.64-.17,3.79,3.79,0,0,1-1.37-.55,2.8,2.8,0,0,1-.93-1,3.28,3.28,0,0,1-.35-1.61,6.45,6.45,0,0,1,.17-1.41,9.91,9.91,0,0,1,.47-1.46,11.94,11.94,0,0,1,.64-1.41c.24-.45.48-.87.72-1.24l.13-.17.17-.24.18-.23a.71.71,0,0,1,.16-.15.67.67,0,0,1,.48-.17.75.75,0,0,1,.31.06,6.27,6.27,0,0,1,.68-.69,6.44,6.44,0,0,1,.84-.61,4.38,4.38,0,0,1,.93-.44,2.93,2.93,0,0,1,.95-.17,1.78,1.78,0,0,1,1.05.31,3,3,0,0,1,.77.8,5,5,0,0,1,.53,1.12,9.53,9.53,0,0,1,.34,1.27,11.49,11.49,0,0,1,.17,1.24c0,.4.05.74.05,1A8.22,8.22,0,0,1,185.64,46.06Zm-1.26-2.93c0-.25,0-.54-.1-.85s-.11-.64-.18-1a6.59,6.59,0,0,0-.26-.91,2.69,2.69,0,0,0-.34-.68.55.55,0,0,0-.45-.26,1.61,1.61,0,0,0-.65.17,4.48,4.48,0,0,0-.72.44,5.2,5.2,0,0,0-.65.57,2.77,2.77,0,0,0-.44.55.77.77,0,0,1-.7.42,1.13,1.13,0,0,1-.36-.06q-.28.44-.6,1a11.21,11.21,0,0,0-.57,1.21,9.66,9.66,0,0,0-.42,1.25,5,5,0,0,0-.16,1.15,1.75,1.75,0,0,0,.24,1,1.59,1.59,0,0,0,.62.56,2.66,2.66,0,0,0,.88.25,8.43,8.43,0,0,0,1,.06,5.49,5.49,0,0,0,.91-.07,3.51,3.51,0,0,0,.84-.24,3.11,3.11,0,0,0,.75-.43,2.66,2.66,0,0,0,.62-.67.78.78,0,0,1-.27.14,1.55,1.55,0,0,1-.32,0,2.46,2.46,0,0,1-.72-.12,4.93,4.93,0,0,1-.78-.29,5.47,5.47,0,0,1-.71-.41,3.56,3.56,0,0,1-.58-.46,4.28,4.28,0,0,0-.19.43,2.41,2.41,0,0,1-.18.43,1,1,0,0,1-.27.33.69.69,0,0,1-.45.13.74.74,0,0,1-.54-.23.71.71,0,0,1-.24-.53,1,1,0,0,1,.09-.33c0-.15.11-.33.19-.54s.17-.43.27-.67l.28-.7c.08-.23.16-.45.23-.67a4.26,4.26,0,0,0,.14-.53.79.79,0,0,1,.24-.5.73.73,0,0,1,.52-.19.75.75,0,0,1,.31.06c.11-.11.23-.23.36-.34a2.79,2.79,0,0,1,.39-.31,1.85,1.85,0,0,1,.45-.21,1.26,1.26,0,0,1,.47-.08,1.06,1.06,0,0,1,.58.15,1.21,1.21,0,0,1,.38.4,1.86,1.86,0,0,1,.22.54,2.78,2.78,0,0,1,.07.57,3.91,3.91,0,0,1-.07.67,2.69,2.69,0,0,1-.22.64,2.12,2.12,0,0,1-.36.57,2.22,2.22,0,0,1-.53.43,2.15,2.15,0,0,0,.3.14,1,1,0,0,0,.31.06h0l.11,0h.07a.66.66,0,0,1,.52.24.87.87,0,0,1,.2.55v.09a2.32,2.32,0,0,0,.21-.56c.06-.21.1-.42.14-.63s.06-.43.08-.65,0-.41,0-.59S184.4,43.38,184.38,43.13Zm-2.77.17a5.37,5.37,0,0,0-.35.45h.16a.39.39,0,0,0,.26-.09.58.58,0,0,0,.17-.21,1,1,0,0,0,.11-.28,1.51,1.51,0,0,0,0-.28A3.87,3.87,0,0,0,181.61,43.3Z" transform="translate(-17 -27.98)"/></svg>